<svg xmlns="http://www.w3.org/2000/svg" xmlns:xlink="http://www.w3.org/1999/xlink" width="500" zoomAndPan="magnify" viewBox="0 0 375 374.999991" height="500" preserveAspectRatio="xMidYMid meet" version="1.0"><defs><g/><clipPath id="e942e7efd4"><path d="M 141.371094 66.394531 L 233.621094 66.394531 L 233.621094 227.644531 L 141.371094 227.644531 Z M 141.371094 66.394531 " clip-rule="nonzero"/></clipPath></defs><g fill="#3f6449" fill-opacity="1"><g transform="translate(61.371094, 285.8771)"><g><path d="M 31.171875 -19.5 C 30.867188 -17.925781 30.304688 -16.523438 29.484375 -15.296875 C 28.660156 -14.078125 27.632812 -13.050781 26.40625 -12.21875 C 25.1875 -11.382812 23.8125 -10.75 22.28125 -10.3125 C 20.75 -9.875 19.132812 -9.65625 17.4375 -9.65625 C 16.519531 -9.65625 15.710938 -9.691406 15.015625 -9.765625 C 14.316406 -9.847656 13.65625 -9.984375 13.03125 -10.171875 C 12.695312 -8.898438 12.398438 -7.753906 12.140625 -6.734375 C 11.890625 -5.710938 11.691406 -4.953125 11.546875 -4.453125 C 11.398438 -3.910156 11.367188 -3.519531 11.453125 -3.28125 C 11.546875 -3.050781 11.726562 -2.898438 12 -2.828125 L 13.78125 -2.53125 C 14.101562 -2.457031 14.335938 -2.320312 14.484375 -2.125 C 14.628906 -1.925781 14.703125 -1.679688 14.703125 -1.390625 C 14.703125 -0.972656 14.550781 -0.632812 14.25 -0.375 C 13.945312 -0.125 13.515625 0 12.953125 0 L 1.5625 0 C 0.976562 0 0.582031 -0.109375 0.375 -0.328125 C 0.175781 -0.554688 0.078125 -0.847656 0.078125 -1.203125 C 0.078125 -1.546875 0.195312 -1.832031 0.4375 -2.0625 C 0.675781 -2.300781 0.953125 -2.472656 1.265625 -2.578125 L 2.25 -2.84375 C 2.625 -2.957031 2.894531 -3.117188 3.0625 -3.328125 C 3.238281 -3.535156 3.394531 -3.851562 3.53125 -4.28125 C 3.664062 -4.6875 3.84375 -5.273438 4.0625 -6.046875 C 4.28125 -6.816406 4.523438 -7.710938 4.796875 -8.734375 C 5.066406 -9.753906 5.359375 -10.847656 5.671875 -12.015625 C 5.984375 -13.191406 6.296875 -14.378906 6.609375 -15.578125 C 6.929688 -16.773438 7.234375 -17.9375 7.515625 -19.0625 C 7.804688 -20.195312 8.066406 -21.238281 8.296875 -22.1875 C 8.535156 -23.132812 8.734375 -23.9375 8.890625 -24.59375 C 9.054688 -25.25 9.164062 -25.695312 9.21875 -25.9375 C 9.28125 -26.3125 9.253906 -26.59375 9.140625 -26.78125 C 9.023438 -26.96875 8.84375 -27.09375 8.59375 -27.15625 L 7.5625 -27.484375 C 7.257812 -27.609375 7.03125 -27.753906 6.875 -27.921875 C 6.726562 -28.097656 6.65625 -28.320312 6.65625 -28.59375 C 6.65625 -29.007812 6.804688 -29.34375 7.109375 -29.59375 C 7.410156 -29.851562 7.847656 -29.984375 8.421875 -29.984375 L 20.96875 -29.984375 C 22.757812 -29.984375 24.351562 -29.738281 25.75 -29.25 C 27.144531 -28.757812 28.300781 -28.050781 29.21875 -27.125 C 30.132812 -26.207031 30.765625 -25.101562 31.109375 -23.8125 C 31.460938 -22.53125 31.484375 -21.09375 31.171875 -19.5 Z M 16.734375 -24.78125 C 16.703125 -24.644531 16.617188 -24.304688 16.484375 -23.765625 C 16.347656 -23.234375 16.171875 -22.550781 15.953125 -21.71875 C 15.742188 -20.894531 15.507812 -19.972656 15.25 -18.953125 C 14.988281 -17.929688 14.71875 -16.863281 14.4375 -15.75 C 14.164062 -14.644531 13.890625 -13.546875 13.609375 -12.453125 C 13.992188 -12.316406 14.390625 -12.21875 14.796875 -12.15625 C 15.203125 -12.101562 15.625 -12.078125 16.0625 -12.078125 C 17.945312 -12.078125 19.546875 -12.738281 20.859375 -14.0625 C 22.171875 -15.394531 23.050781 -17.382812 23.5 -20.03125 C 23.8125 -21.769531 23.820312 -23.175781 23.53125 -24.25 C 23.25 -25.332031 22.765625 -26.128906 22.078125 -26.640625 C 21.398438 -27.148438 20.597656 -27.40625 19.671875 -27.40625 C 18.878906 -27.40625 18.257812 -27.191406 17.8125 -26.765625 C 17.363281 -26.347656 17.003906 -25.6875 16.734375 -24.78125 Z M 16.734375 -24.78125 "/></g></g></g><g fill="#3f6449" fill-opacity="1"><g transform="translate(91.683092, 285.8771)"><g><path d="M 2.359375 -14.609375 C 2.128906 -14.722656 2.003906 -14.945312 1.984375 -15.28125 C 1.972656 -15.613281 2.097656 -16.039062 2.359375 -16.5625 C 2.785156 -17.363281 3.351562 -18.0625 4.0625 -18.65625 C 4.78125 -19.257812 5.609375 -19.722656 6.546875 -20.046875 C 7.484375 -20.378906 8.492188 -20.546875 9.578125 -20.546875 C 11.515625 -20.546875 12.484375 -19.703125 12.484375 -18.015625 C 12.484375 -17.617188 12.421875 -17.179688 12.296875 -16.703125 C 12.179688 -16.234375 12.03125 -15.734375 11.84375 -15.203125 C 12.5625 -16.460938 13.332031 -17.484375 14.15625 -18.265625 C 14.988281 -19.054688 15.828125 -19.632812 16.671875 -20 C 17.515625 -20.363281 18.3125 -20.546875 19.0625 -20.546875 C 20.363281 -20.546875 21.359375 -20.148438 22.046875 -19.359375 C 22.734375 -18.566406 23.050781 -17.523438 23 -16.234375 C 22.976562 -15.140625 22.75 -14.195312 22.3125 -13.40625 C 21.875 -12.625 21.316406 -12.023438 20.640625 -11.609375 C 19.960938 -11.191406 19.226562 -10.984375 18.4375 -10.984375 C 17.570312 -10.984375 16.953125 -11.171875 16.578125 -11.546875 C 16.210938 -11.929688 16.03125 -12.359375 16.03125 -12.828125 C 16.03125 -13.203125 16.082031 -13.5625 16.1875 -13.90625 C 16.300781 -14.25 16.359375 -14.597656 16.359375 -14.953125 C 16.359375 -15.265625 16.285156 -15.507812 16.140625 -15.6875 C 15.992188 -15.863281 15.773438 -15.953125 15.484375 -15.953125 C 15.054688 -15.953125 14.597656 -15.71875 14.109375 -15.25 C 13.617188 -14.789062 13.097656 -14.039062 12.546875 -13 C 12.003906 -11.96875 11.441406 -10.597656 10.859375 -8.890625 C 10.503906 -7.890625 10.253906 -7.078125 10.109375 -6.453125 C 9.960938 -5.835938 9.890625 -5.28125 9.890625 -4.78125 C 9.890625 -4.414062 9.953125 -4.132812 10.078125 -3.9375 C 10.203125 -3.738281 10.34375 -3.5625 10.5 -3.40625 C 10.65625 -3.25 10.789062 -3.070312 10.90625 -2.875 C 11.03125 -2.675781 11.09375 -2.40625 11.09375 -2.0625 C 11.09375 -1.300781 10.546875 -0.671875 9.453125 -0.171875 C 8.359375 0.328125 6.707031 0.578125 4.5 0.578125 C 3.03125 0.578125 2.132812 0.140625 1.8125 -0.734375 C 1.5 -1.617188 1.628906 -2.859375 2.203125 -4.453125 L 5.25 -12.9375 C 5.625 -13.945312 5.753906 -14.65625 5.640625 -15.0625 C 5.535156 -15.476562 5.316406 -15.6875 4.984375 -15.6875 C 4.804688 -15.6875 4.617188 -15.632812 4.421875 -15.53125 C 4.234375 -15.425781 3.992188 -15.253906 3.703125 -15.015625 C 3.390625 -14.753906 3.132812 -14.59375 2.9375 -14.53125 C 2.75 -14.476562 2.554688 -14.503906 2.359375 -14.609375 Z M 2.359375 -14.609375 "/></g></g></g><g fill="#3f6449" fill-opacity="1"><g transform="translate(114.454579, 285.8771)"><g><path d="M 20.90625 -6.28125 C 20.695312 -5.394531 20.304688 -4.539062 19.734375 -3.71875 C 19.160156 -2.894531 18.40625 -2.160156 17.46875 -1.515625 C 16.53125 -0.878906 15.40625 -0.375 14.09375 0 C 12.789062 0.382812 11.300781 0.578125 9.625 0.578125 C 7.476562 0.578125 5.742188 0.222656 4.421875 -0.484375 C 3.097656 -1.191406 2.160156 -2.195312 1.609375 -3.5 C 1.066406 -4.8125 0.875 -6.363281 1.03125 -8.15625 C 1.1875 -9.882812 1.625 -11.5 2.34375 -13 C 3.0625 -14.5 4.015625 -15.8125 5.203125 -16.9375 C 6.398438 -18.070312 7.773438 -18.957031 9.328125 -19.59375 C 10.890625 -20.226562 12.578125 -20.546875 14.390625 -20.546875 C 15.816406 -20.546875 16.988281 -20.300781 17.90625 -19.8125 C 18.820312 -19.332031 19.519531 -18.671875 20 -17.828125 C 20.488281 -16.992188 20.796875 -16.050781 20.921875 -15 C 20.972656 -14.695312 21.050781 -14.429688 21.15625 -14.203125 C 21.257812 -13.984375 21.410156 -13.847656 21.609375 -13.796875 C 21.816406 -13.734375 21.976562 -13.640625 22.09375 -13.515625 C 22.21875 -13.398438 22.28125 -13.222656 22.28125 -12.984375 C 22.28125 -12.679688 22.148438 -12.390625 21.890625 -12.109375 C 21.628906 -11.835938 21.164062 -11.597656 20.5 -11.390625 C 19.875 -11.222656 19.078125 -11 18.109375 -10.71875 C 17.148438 -10.4375 16.101562 -10.128906 14.96875 -9.796875 C 13.84375 -9.472656 12.71875 -9.144531 11.59375 -8.8125 C 10.476562 -8.488281 9.445312 -8.191406 8.5 -7.921875 C 8.632812 -6.554688 9.050781 -5.519531 9.75 -4.8125 C 10.445312 -4.113281 11.394531 -3.765625 12.59375 -3.765625 C 13.75 -3.765625 14.8125 -4.066406 15.78125 -4.671875 C 16.757812 -5.285156 17.578125 -6.09375 18.234375 -7.09375 C 18.597656 -7.550781 18.910156 -7.859375 19.171875 -8.015625 C 19.429688 -8.171875 19.710938 -8.25 20.015625 -8.25 C 20.367188 -8.226562 20.648438 -8.066406 20.859375 -7.765625 C 21.066406 -7.460938 21.082031 -6.96875 20.90625 -6.28125 Z M 13.03125 -17.953125 C 12.550781 -17.953125 12.066406 -17.757812 11.578125 -17.375 C 11.085938 -17 10.628906 -16.460938 10.203125 -15.765625 C 9.785156 -15.066406 9.425781 -14.242188 9.125 -13.296875 C 8.820312 -12.347656 8.625 -11.289062 8.53125 -10.125 C 9.5 -10.414062 10.503906 -10.722656 11.546875 -11.046875 C 12.597656 -11.378906 13.523438 -11.675781 14.328125 -11.9375 C 14.441406 -12.394531 14.523438 -12.898438 14.578125 -13.453125 C 14.640625 -14.003906 14.671875 -14.617188 14.671875 -15.296875 C 14.671875 -16.097656 14.53125 -16.738281 14.25 -17.21875 C 13.976562 -17.707031 13.570312 -17.953125 13.03125 -17.953125 Z M 13.03125 -17.953125 "/></g></g></g><g fill="#3f6449" fill-opacity="1"><g transform="translate(137.483134, 285.8771)"><g><path d="M 4.4375 -16.46875 L 3.296875 -16.84375 C 2.679688 -17.070312 2.375 -17.5 2.375 -18.125 C 2.375 -18.539062 2.535156 -18.859375 2.859375 -19.078125 C 3.191406 -19.304688 3.644531 -19.421875 4.21875 -19.421875 L 5.4375 -19.421875 C 5.9375 -19.421875 6.394531 -19.53125 6.8125 -19.75 C 7.226562 -19.96875 7.632812 -20.28125 8.03125 -20.6875 L 10.96875 -23.921875 C 11.269531 -24.253906 11.566406 -24.476562 11.859375 -24.59375 C 12.160156 -24.71875 12.492188 -24.78125 12.859375 -24.78125 C 13.296875 -24.78125 13.617188 -24.671875 13.828125 -24.453125 C 14.035156 -24.242188 14.140625 -23.953125 14.140625 -23.578125 C 14.140625 -23.367188 14.109375 -23.070312 14.046875 -22.6875 C 13.984375 -22.3125 13.882812 -21.882812 13.75 -21.40625 L 13.15625 -19.296875 L 17.03125 -19.296875 C 17.726562 -19.296875 18.078125 -18.96875 18.078125 -18.3125 C 18.078125 -17.726562 17.835938 -17.265625 17.359375 -16.921875 C 16.878906 -16.578125 16.238281 -16.40625 15.4375 -16.40625 L 12.3125 -16.40625 L 9.6875 -7.28125 C 9.351562 -6.125 9.289062 -5.328125 9.5 -4.890625 C 9.707031 -4.453125 10.164062 -4.234375 10.875 -4.234375 C 11.375 -4.234375 11.84375 -4.351562 12.28125 -4.59375 C 12.726562 -4.832031 13.210938 -5.222656 13.734375 -5.765625 C 13.972656 -6.035156 14.179688 -6.21875 14.359375 -6.3125 C 14.535156 -6.40625 14.71875 -6.453125 14.90625 -6.453125 C 15.164062 -6.453125 15.367188 -6.363281 15.515625 -6.1875 C 15.671875 -6.019531 15.726562 -5.78125 15.6875 -5.46875 C 15.59375 -4.820312 15.289062 -4.144531 14.78125 -3.4375 C 14.28125 -2.726562 13.601562 -2.070312 12.75 -1.46875 C 11.90625 -0.863281 10.914062 -0.375 9.78125 0 C 8.65625 0.382812 7.4375 0.578125 6.125 0.578125 C 4.164062 0.578125 2.898438 -0.015625 2.328125 -1.203125 C 1.765625 -2.398438 1.847656 -4.226562 2.578125 -6.6875 L 4.78125 -13.90625 C 5.03125 -14.769531 5.125 -15.378906 5.0625 -15.734375 C 5.007812 -16.085938 4.800781 -16.332031 4.4375 -16.46875 Z M 4.4375 -16.46875 "/></g></g></g><g fill="#3f6449" fill-opacity="1"><g transform="translate(155.241891, 285.8771)"><g><path d="M 4.4375 -16.46875 L 3.296875 -16.84375 C 2.679688 -17.070312 2.375 -17.5 2.375 -18.125 C 2.375 -18.539062 2.535156 -18.859375 2.859375 -19.078125 C 3.191406 -19.304688 3.644531 -19.421875 4.21875 -19.421875 L 5.4375 -19.421875 C 5.9375 -19.421875 6.394531 -19.53125 6.8125 -19.75 C 7.226562 -19.96875 7.632812 -20.28125 8.03125 -20.6875 L 10.96875 -23.921875 C 11.269531 -24.253906 11.566406 -24.476562 11.859375 -24.59375 C 12.160156 -24.71875 12.492188 -24.78125 12.859375 -24.78125 C 13.296875 -24.78125 13.617188 -24.671875 13.828125 -24.453125 C 14.035156 -24.242188 14.140625 -23.953125 14.140625 -23.578125 C 14.140625 -23.367188 14.109375 -23.070312 14.046875 -22.6875 C 13.984375 -22.3125 13.882812 -21.882812 13.75 -21.40625 L 13.15625 -19.296875 L 17.03125 -19.296875 C 17.726562 -19.296875 18.078125 -18.96875 18.078125 -18.3125 C 18.078125 -17.726562 17.835938 -17.265625 17.359375 -16.921875 C 16.878906 -16.578125 16.238281 -16.40625 15.4375 -16.40625 L 12.3125 -16.40625 L 9.6875 -7.28125 C 9.351562 -6.125 9.289062 -5.328125 9.5 -4.890625 C 9.707031 -4.453125 10.164062 -4.234375 10.875 -4.234375 C 11.375 -4.234375 11.84375 -4.351562 12.28125 -4.59375 C 12.726562 -4.832031 13.210938 -5.222656 13.734375 -5.765625 C 13.972656 -6.035156 14.179688 -6.21875 14.359375 -6.3125 C 14.535156 -6.40625 14.71875 -6.453125 14.90625 -6.453125 C 15.164062 -6.453125 15.367188 -6.363281 15.515625 -6.1875 C 15.671875 -6.019531 15.726562 -5.78125 15.6875 -5.46875 C 15.59375 -4.820312 15.289062 -4.144531 14.78125 -3.4375 C 14.28125 -2.726562 13.601562 -2.070312 12.75 -1.46875 C 11.90625 -0.863281 10.914062 -0.375 9.78125 0 C 8.65625 0.382812 7.4375 0.578125 6.125 0.578125 C 4.164062 0.578125 2.898438 -0.015625 2.328125 -1.203125 C 1.765625 -2.398438 1.847656 -4.226562 2.578125 -6.6875 L 4.78125 -13.90625 C 5.03125 -14.769531 5.125 -15.378906 5.0625 -15.734375 C 5.007812 -16.085938 4.800781 -16.332031 4.4375 -16.46875 Z M 4.4375 -16.46875 "/></g></g></g><g fill="#3f6449" fill-opacity="1"><g transform="translate(173.000649, 285.8771)"><g><path d="M 15.578125 -13.203125 C 16.421875 -15.710938 17.367188 -17.570312 18.421875 -18.78125 C 19.484375 -19.988281 20.675781 -20.59375 22 -20.59375 C 22.925781 -20.59375 23.65625 -20.289062 24.1875 -19.6875 C 24.726562 -19.082031 25 -18.28125 25 -17.28125 C 25 -16.082031 24.65625 -15.078125 23.96875 -14.265625 C 23.28125 -13.460938 22.367188 -12.800781 21.234375 -12.28125 C 20.460938 -11.945312 19.769531 -11.554688 19.15625 -11.109375 C 18.539062 -10.671875 17.984375 -10.078125 17.484375 -9.328125 C 16.984375 -8.585938 16.5 -7.59375 16.03125 -6.34375 L 13.6875 -0.078125 C 12.789062 2.515625 11.722656 4.585938 10.484375 6.140625 C 9.253906 7.703125 7.851562 8.828125 6.28125 9.515625 C 4.71875 10.203125 2.988281 10.546875 1.09375 10.546875 C -0.832031 10.546875 -2.296875 10.132812 -3.296875 9.3125 C -4.296875 8.488281 -4.796875 7.390625 -4.796875 6.015625 C -4.796875 5.390625 -4.660156 4.816406 -4.390625 4.296875 C -4.117188 3.785156 -3.75 3.375 -3.28125 3.0625 C -2.8125 2.75 -2.269531 2.59375 -1.65625 2.59375 C -1.09375 2.59375 -0.625 2.707031 -0.25 2.9375 C 0.113281 3.175781 0.425781 3.476562 0.6875 3.84375 C 0.945312 4.21875 1.179688 4.613281 1.390625 5.03125 C 1.609375 5.457031 1.828125 5.859375 2.046875 6.234375 C 2.265625 6.609375 2.519531 6.910156 2.8125 7.140625 C 3.101562 7.378906 3.46875 7.5 3.90625 7.5 C 4.675781 7.5 5.316406 7.148438 5.828125 6.453125 C 6.335938 5.765625 6.601562 4.710938 6.625 3.296875 C 6.625 2.585938 6.585938 1.695312 6.515625 0.625 C 6.441406 -0.445312 6.335938 -1.613281 6.203125 -2.875 C 6.078125 -4.144531 5.929688 -5.441406 5.765625 -6.765625 C 5.609375 -8.097656 5.441406 -9.378906 5.265625 -10.609375 C 5.097656 -11.847656 4.925781 -12.960938 4.75 -13.953125 C 4.664062 -14.554688 4.523438 -15 4.328125 -15.28125 C 4.140625 -15.570312 3.914062 -15.71875 3.65625 -15.71875 C 3.5 -15.71875 3.328125 -15.660156 3.140625 -15.546875 C 2.960938 -15.429688 2.742188 -15.21875 2.484375 -14.90625 C 2.316406 -14.707031 2.148438 -14.578125 1.984375 -14.515625 C 1.816406 -14.460938 1.640625 -14.453125 1.453125 -14.484375 C 1.265625 -14.523438 1.109375 -14.671875 0.984375 -14.921875 C 0.859375 -15.171875 0.863281 -15.546875 1 -16.046875 C 1.257812 -16.898438 1.707031 -17.664062 2.34375 -18.34375 C 2.976562 -19.019531 3.753906 -19.554688 4.671875 -19.953125 C 5.585938 -20.347656 6.578125 -20.546875 7.640625 -20.546875 C 8.710938 -20.546875 9.597656 -20.191406 10.296875 -19.484375 C 11.003906 -18.773438 11.425781 -17.703125 11.5625 -16.265625 C 11.632812 -15.554688 11.707031 -14.6875 11.78125 -13.65625 C 11.851562 -12.625 11.921875 -11.492188 11.984375 -10.265625 C 12.046875 -9.046875 12.101562 -7.796875 12.15625 -6.515625 C 12.207031 -5.242188 12.25 -4.019531 12.28125 -2.84375 Z M 15.578125 -13.203125 "/></g></g></g><g fill="#3f6449" fill-opacity="1"><g transform="translate(197.121715, 285.8771)"><g><path d="M 31.171875 -19.5 C 30.867188 -17.925781 30.304688 -16.523438 29.484375 -15.296875 C 28.660156 -14.078125 27.632812 -13.050781 26.40625 -12.21875 C 25.1875 -11.382812 23.8125 -10.75 22.28125 -10.3125 C 20.75 -9.875 19.132812 -9.65625 17.4375 -9.65625 C 16.519531 -9.65625 15.710938 -9.691406 15.015625 -9.765625 C 14.316406 -9.847656 13.65625 -9.984375 13.03125 -10.171875 C 12.695312 -8.898438 12.398438 -7.753906 12.140625 -6.734375 C 11.890625 -5.710938 11.691406 -4.953125 11.546875 -4.453125 C 11.398438 -3.910156 11.367188 -3.519531 11.453125 -3.28125 C 11.546875 -3.050781 11.726562 -2.898438 12 -2.828125 L 13.78125 -2.53125 C 14.101562 -2.457031 14.335938 -2.320312 14.484375 -2.125 C 14.628906 -1.925781 14.703125 -1.679688 14.703125 -1.390625 C 14.703125 -0.972656 14.550781 -0.632812 14.25 -0.375 C 13.945312 -0.125 13.515625 0 12.953125 0 L 1.5625 0 C 0.976562 0 0.582031 -0.109375 0.375 -0.328125 C 0.175781 -0.554688 0.078125 -0.847656 0.078125 -1.203125 C 0.078125 -1.546875 0.195312 -1.832031 0.4375 -2.0625 C 0.675781 -2.300781 0.953125 -2.472656 1.265625 -2.578125 L 2.25 -2.84375 C 2.625 -2.957031 2.894531 -3.117188 3.0625 -3.328125 C 3.238281 -3.535156 3.394531 -3.851562 3.53125 -4.28125 C 3.664062 -4.6875 3.84375 -5.273438 4.0625 -6.046875 C 4.28125 -6.816406 4.523438 -7.710938 4.796875 -8.734375 C 5.066406 -9.753906 5.359375 -10.847656 5.671875 -12.015625 C 5.984375 -13.191406 6.296875 -14.378906 6.609375 -15.578125 C 6.929688 -16.773438 7.234375 -17.9375 7.515625 -19.0625 C 7.804688 -20.195312 8.066406 -21.238281 8.296875 -22.1875 C 8.535156 -23.132812 8.734375 -23.9375 8.890625 -24.59375 C 9.054688 -25.25 9.164062 -25.695312 9.21875 -25.9375 C 9.28125 -26.3125 9.253906 -26.59375 9.140625 -26.78125 C 9.023438 -26.96875 8.84375 -27.09375 8.59375 -27.15625 L 7.5625 -27.484375 C 7.257812 -27.609375 7.03125 -27.753906 6.875 -27.921875 C 6.726562 -28.097656 6.65625 -28.320312 6.65625 -28.59375 C 6.65625 -29.007812 6.804688 -29.34375 7.109375 -29.59375 C 7.410156 -29.851562 7.847656 -29.984375 8.421875 -29.984375 L 20.96875 -29.984375 C 22.757812 -29.984375 24.351562 -29.738281 25.75 -29.25 C 27.144531 -28.757812 28.300781 -28.050781 29.21875 -27.125 C 30.132812 -26.207031 30.765625 -25.101562 31.109375 -23.8125 C 31.460938 -22.53125 31.484375 -21.09375 31.171875 -19.5 Z M 16.734375 -24.78125 C 16.703125 -24.644531 16.617188 -24.304688 16.484375 -23.765625 C 16.347656 -23.234375 16.171875 -22.550781 15.953125 -21.71875 C 15.742188 -20.894531 15.507812 -19.972656 15.25 -18.953125 C 14.988281 -17.929688 14.71875 -16.863281 14.4375 -15.75 C 14.164062 -14.644531 13.890625 -13.546875 13.609375 -12.453125 C 13.992188 -12.316406 14.390625 -12.21875 14.796875 -12.15625 C 15.203125 -12.101562 15.625 -12.078125 16.0625 -12.078125 C 17.945312 -12.078125 19.546875 -12.738281 20.859375 -14.0625 C 22.171875 -15.394531 23.050781 -17.382812 23.5 -20.03125 C 23.8125 -21.769531 23.820312 -23.175781 23.53125 -24.25 C 23.25 -25.332031 22.765625 -26.128906 22.078125 -26.640625 C 21.398438 -27.148438 20.597656 -27.40625 19.671875 -27.40625 C 18.878906 -27.40625 18.257812 -27.191406 17.8125 -26.765625 C 17.363281 -26.347656 17.003906 -25.6875 16.734375 -24.78125 Z M 16.734375 -24.78125 "/></g></g></g><g fill="#3f6449" fill-opacity="1"><g transform="translate(227.433713, 285.8771)"><g><path d="M 14.765625 -24.703125 L 9.34375 -7.15625 C 8.976562 -6.050781 8.847656 -5.300781 8.953125 -4.90625 C 9.054688 -4.507812 9.285156 -4.3125 9.640625 -4.3125 C 9.898438 -4.3125 10.160156 -4.375 10.421875 -4.5 C 10.679688 -4.625 10.957031 -4.835938 11.25 -5.140625 C 11.53125 -5.378906 11.769531 -5.523438 11.96875 -5.578125 C 12.175781 -5.628906 12.367188 -5.613281 12.546875 -5.53125 C 12.796875 -5.414062 12.929688 -5.191406 12.953125 -4.859375 C 12.972656 -4.535156 12.851562 -4.113281 12.59375 -3.59375 C 12.207031 -2.78125 11.640625 -2.0625 10.890625 -1.4375 C 10.140625 -0.8125 9.257812 -0.320312 8.25 0.03125 C 7.25 0.394531 6.15625 0.578125 4.96875 0.578125 C 3.695312 0.578125 2.765625 0.332031 2.171875 -0.15625 C 1.578125 -0.65625 1.265625 -1.367188 1.234375 -2.296875 C 1.210938 -3.222656 1.398438 -4.335938 1.796875 -5.640625 L 7.234375 -23.21875 C 7.566406 -24.257812 7.6875 -24.976562 7.59375 -25.375 C 7.507812 -25.769531 7.304688 -25.96875 6.984375 -25.96875 C 6.796875 -25.96875 6.601562 -25.914062 6.40625 -25.8125 C 6.21875 -25.707031 5.984375 -25.535156 5.703125 -25.296875 C 5.390625 -25.035156 5.128906 -24.878906 4.921875 -24.828125 C 4.722656 -24.773438 4.53125 -24.796875 4.34375 -24.890625 C 4.113281 -25.003906 3.988281 -25.226562 3.96875 -25.5625 C 3.945312 -25.90625 4.070312 -26.332031 4.34375 -26.84375 C 4.976562 -28.039062 5.925781 -29.003906 7.1875 -29.734375 C 8.445312 -30.460938 9.914062 -30.828125 11.59375 -30.828125 C 12.84375 -30.828125 13.757812 -30.578125 14.34375 -30.078125 C 14.9375 -29.578125 15.253906 -28.867188 15.296875 -27.953125 C 15.335938 -27.035156 15.160156 -25.953125 14.765625 -24.703125 Z M 14.765625 -24.703125 "/></g></g></g><g fill="#3f6449" fill-opacity="1"><g transform="translate(242.364784, 285.8771)"><g><path d="M 21 -7 C 20.726562 -5.945312 20.632812 -5.21875 20.71875 -4.8125 C 20.8125 -4.40625 21.019531 -4.203125 21.34375 -4.203125 C 21.539062 -4.203125 21.726562 -4.253906 21.90625 -4.359375 C 22.09375 -4.460938 22.332031 -4.640625 22.625 -4.890625 C 22.9375 -5.140625 23.191406 -5.289062 23.390625 -5.34375 C 23.585938 -5.394531 23.78125 -5.378906 23.96875 -5.296875 C 24.207031 -5.160156 24.332031 -4.925781 24.34375 -4.59375 C 24.351562 -4.257812 24.226562 -3.84375 23.96875 -3.34375 C 23.550781 -2.550781 22.992188 -1.863281 22.296875 -1.28125 C 21.597656 -0.695312 20.820312 -0.242188 19.96875 0.078125 C 19.113281 0.410156 18.234375 0.578125 17.328125 0.578125 C 16.179688 0.578125 15.351562 0.289062 14.84375 -0.28125 C 14.34375 -0.851562 14.09375 -1.644531 14.09375 -2.65625 C 14.09375 -3.03125 14.113281 -3.4375 14.15625 -3.875 C 13.195312 -2.457031 12.015625 -1.359375 10.609375 -0.578125 C 9.203125 0.191406 7.722656 0.578125 6.171875 0.578125 C 4.941406 0.578125 3.894531 0.316406 3.03125 -0.203125 C 2.175781 -0.722656 1.554688 -1.507812 1.171875 -2.5625 C 0.785156 -3.625 0.6875 -4.957031 0.875 -6.5625 C 1.03125 -7.945312 1.394531 -9.3125 1.96875 -10.65625 C 2.539062 -12.007812 3.300781 -13.273438 4.25 -14.453125 C 5.195312 -15.640625 6.320312 -16.691406 7.625 -17.609375 C 8.925781 -18.523438 10.390625 -19.242188 12.015625 -19.765625 C 13.640625 -20.285156 15.410156 -20.546875 17.328125 -20.546875 C 19.972656 -20.546875 21.921875 -20.28125 23.171875 -19.75 C 24.429688 -19.21875 25.007812 -18.578125 24.90625 -17.828125 C 24.863281 -17.492188 24.765625 -17.234375 24.609375 -17.046875 C 24.453125 -16.859375 24.273438 -16.695312 24.078125 -16.5625 C 23.878906 -16.425781 23.6875 -16.265625 23.5 -16.078125 C 23.3125 -15.898438 23.175781 -15.640625 23.09375 -15.296875 Z M 8.375 -6.6875 C 8.25 -5.46875 8.316406 -4.625 8.578125 -4.15625 C 8.835938 -3.6875 9.195312 -3.453125 9.65625 -3.453125 C 10.25 -3.453125 10.882812 -3.75 11.5625 -4.34375 C 12.238281 -4.945312 12.898438 -5.78125 13.546875 -6.84375 C 14.203125 -7.90625 14.78125 -9.132812 15.28125 -10.53125 C 15.789062 -11.925781 16.175781 -13.414062 16.4375 -15 C 16.601562 -15.976562 16.597656 -16.691406 16.421875 -17.140625 C 16.242188 -17.597656 15.910156 -17.828125 15.421875 -17.828125 C 14.796875 -17.828125 14.164062 -17.609375 13.53125 -17.171875 C 12.90625 -16.734375 12.304688 -16.132812 11.734375 -15.375 C 11.160156 -14.625 10.640625 -13.769531 10.171875 -12.8125 C 9.710938 -11.851562 9.328125 -10.84375 9.015625 -9.78125 C 8.703125 -8.726562 8.488281 -7.695312 8.375 -6.6875 Z M 8.375 -6.6875 "/></g></g></g><g fill="#3f6449" fill-opacity="1"><g transform="translate(268.349565, 285.8771)"><g><path d="M 2.421875 -14.609375 C 2.191406 -14.722656 2.066406 -14.945312 2.046875 -15.28125 C 2.035156 -15.613281 2.160156 -16.039062 2.421875 -16.5625 C 3.066406 -17.757812 4.03125 -18.722656 5.3125 -19.453125 C 6.59375 -20.179688 8.085938 -20.546875 9.796875 -20.546875 C 10.847656 -20.546875 11.660156 -20.332031 12.234375 -19.90625 C 12.816406 -19.476562 13.109375 -18.847656 13.109375 -18.015625 C 13.109375 -17.554688 13.007812 -17.046875 12.8125 -16.484375 C 12.613281 -15.929688 12.367188 -15.328125 12.078125 -14.671875 C 13.066406 -16.128906 14.117188 -17.285156 15.234375 -18.140625 C 16.347656 -18.992188 17.457031 -19.609375 18.5625 -19.984375 C 19.664062 -20.359375 20.703125 -20.546875 21.671875 -20.546875 C 23.003906 -20.546875 23.976562 -20.253906 24.59375 -19.671875 C 25.21875 -19.097656 25.546875 -18.300781 25.578125 -17.28125 C 25.609375 -16.257812 25.378906 -15.066406 24.890625 -13.703125 L 22.53125 -7.03125 C 22.175781 -6 22.050781 -5.28125 22.15625 -4.875 C 22.269531 -4.476562 22.484375 -4.28125 22.796875 -4.28125 C 22.984375 -4.28125 23.164062 -4.328125 23.34375 -4.421875 C 23.53125 -4.523438 23.773438 -4.703125 24.078125 -4.953125 C 24.378906 -5.203125 24.632812 -5.351562 24.84375 -5.40625 C 25.050781 -5.46875 25.242188 -5.453125 25.421875 -5.359375 C 25.648438 -5.242188 25.769531 -5.015625 25.78125 -4.671875 C 25.800781 -4.335938 25.675781 -3.914062 25.40625 -3.40625 C 24.789062 -2.207031 23.847656 -1.242188 22.578125 -0.515625 C 21.304688 0.210938 19.835938 0.578125 18.171875 0.578125 C 16.910156 0.578125 15.976562 0.328125 15.375 -0.171875 C 14.78125 -0.671875 14.460938 -1.378906 14.421875 -2.296875 C 14.390625 -3.222656 14.585938 -4.300781 15.015625 -5.53125 L 17.390625 -12.296875 C 17.804688 -13.398438 17.957031 -14.207031 17.84375 -14.71875 C 17.738281 -15.226562 17.367188 -15.484375 16.734375 -15.484375 C 16.148438 -15.484375 15.492188 -15.226562 14.765625 -14.71875 C 14.046875 -14.207031 13.335938 -13.460938 12.640625 -12.484375 C 11.953125 -11.503906 11.351562 -10.328125 10.84375 -8.953125 C 10.425781 -7.828125 10.113281 -6.929688 9.90625 -6.265625 C 9.695312 -5.597656 9.59375 -5.0625 9.59375 -4.65625 C 9.59375 -4.207031 9.664062 -3.804688 9.8125 -3.453125 C 9.96875 -3.109375 10.046875 -2.703125 10.046875 -2.234375 C 10.046875 -1.390625 9.523438 -0.707031 8.484375 -0.1875 C 7.453125 0.320312 6.007812 0.578125 4.15625 0.578125 C 2.8125 0.578125 1.992188 0.132812 1.703125 -0.75 C 1.421875 -1.632812 1.570312 -2.878906 2.15625 -4.484375 L 5.296875 -12.9375 C 5.660156 -13.945312 5.789062 -14.65625 5.6875 -15.0625 C 5.59375 -15.476562 5.382812 -15.6875 5.0625 -15.6875 C 4.875 -15.6875 4.679688 -15.632812 4.484375 -15.53125 C 4.296875 -15.425781 4.054688 -15.253906 3.765625 -15.015625 C 3.453125 -14.753906 3.195312 -14.59375 3 -14.53125 C 2.8125 -14.476562 2.617188 -14.503906 2.421875 -14.609375 Z M 2.421875 -14.609375 "/></g></g></g><g fill="#3f6449" fill-opacity="1"><g transform="translate(295.855301, 285.8771)"><g><path d="M 4.4375 -16.46875 L 3.296875 -16.84375 C 2.679688 -17.070312 2.375 -17.5 2.375 -18.125 C 2.375 -18.539062 2.535156 -18.859375 2.859375 -19.078125 C 3.191406 -19.304688 3.644531 -19.421875 4.21875 -19.421875 L 5.4375 -19.421875 C 5.9375 -19.421875 6.394531 -19.53125 6.8125 -19.75 C 7.226562 -19.96875 7.632812 -20.28125 8.03125 -20.6875 L 10.96875 -23.921875 C 11.269531 -24.253906 11.566406 -24.476562 11.859375 -24.59375 C 12.160156 -24.71875 12.492188 -24.78125 12.859375 -24.78125 C 13.296875 -24.78125 13.617188 -24.671875 13.828125 -24.453125 C 14.035156 -24.242188 14.140625 -23.953125 14.140625 -23.578125 C 14.140625 -23.367188 14.109375 -23.070312 14.046875 -22.6875 C 13.984375 -22.3125 13.882812 -21.882812 13.75 -21.40625 L 13.15625 -19.296875 L 17.03125 -19.296875 C 17.726562 -19.296875 18.078125 -18.96875 18.078125 -18.3125 C 18.078125 -17.726562 17.835938 -17.265625 17.359375 -16.921875 C 16.878906 -16.578125 16.238281 -16.40625 15.4375 -16.40625 L 12.3125 -16.40625 L 9.6875 -7.28125 C 9.351562 -6.125 9.289062 -5.328125 9.5 -4.890625 C 9.707031 -4.453125 10.164062 -4.234375 10.875 -4.234375 C 11.375 -4.234375 11.84375 -4.351562 12.28125 -4.59375 C 12.726562 -4.832031 13.210938 -5.222656 13.734375 -5.765625 C 13.972656 -6.035156 14.179688 -6.21875 14.359375 -6.3125 C 14.535156 -6.40625 14.71875 -6.453125 14.90625 -6.453125 C 15.164062 -6.453125 15.367188 -6.363281 15.515625 -6.1875 C 15.671875 -6.019531 15.726562 -5.78125 15.6875 -5.46875 C 15.59375 -4.820312 15.289062 -4.144531 14.78125 -3.4375 C 14.28125 -2.726562 13.601562 -2.070312 12.75 -1.46875 C 11.90625 -0.863281 10.914062 -0.375 9.78125 0 C 8.65625 0.382812 7.4375 0.578125 6.125 0.578125 C 4.164062 0.578125 2.898438 -0.015625 2.328125 -1.203125 C 1.765625 -2.398438 1.847656 -4.226562 2.578125 -6.6875 L 4.78125 -13.90625 C 5.03125 -14.769531 5.125 -15.378906 5.0625 -15.734375 C 5.007812 -16.085938 4.800781 -16.332031 4.4375 -16.46875 Z M 4.4375 -16.46875 "/></g></g></g><g clip-path="url(#e942e7efd4)"><path fill="#3f6449" d="M 189.371094 137.640625 C 189.371094 137.640625 199.535156 97.730469 143.863281 105.402344 C 143.863281 105.402344 155.9375 111.128906 160.566406 123.625 C 165.195312 136.117188 174.0625 142.460938 184.226562 141.816406 C 184.226562 141.816406 181.507812 121.195312 165.613281 114.949219 C 173.902344 116.699219 185.8125 121.84375 189.371094 137.640625 Z M 201.800781 112.976562 C 201.800781 112.976562 191.800781 90.640625 225.171875 89.410156 C 225.171875 89.410156 218.699219 94.039062 217.273438 101.871094 C 215.816406 109.640625 211.320312 114.269531 205.234375 114.917969 C 205.234375 114.917969 204.714844 102.550781 213.421875 97.277344 C 208.730469 99.152344 202.253906 103.363281 201.800781 112.976562 Z M 147.941406 178.554688 C 147.941406 198.070312 163.738281 213.835938 183.253906 213.835938 C 202.742188 213.835938 218.535156 198.070312 218.535156 178.554688 C 218.535156 174.085938 217.695312 169.8125 216.140625 165.863281 C 212.96875 157.609375 204.488281 147.1875 199.894531 137.476562 C 171.441406 77.789062 208.375 66.265625 208.375 66.265625 C 179.726562 94.914062 208.566406 135.4375 219.992188 149.195312 C 228.667969 159.648438 233.621094 167.191406 233.621094 181.984375 C 233.621094 207.425781 213 228.109375 187.496094 228.109375 C 161.988281 228.109375 141.371094 207.457031 141.371094 181.984375 C 141.371094 160.71875 154.609375 145.050781 176.167969 143.953125 C 196.980469 142.949219 206.722656 162.917969 206.722656 162.917969 C 215.722656 179.492188 201.253906 202.183594 183.902344 202.246094 C 168.65625 202.28125 159.660156 192.472656 158.71875 179.878906 C 160.695312 190.820312 170.242188 199.109375 181.734375 199.109375 C 194.648438 199.109375 205.105469 188.652344 205.105469 175.738281 C 205.105469 143.5 148.492188 139 147.941406 178.554688 Z M 185.003906 103.199219 C 185.003906 103.199219 195.003906 80.867188 161.632812 79.636719 C 161.632812 79.636719 168.105469 84.230469 169.5625 92.03125 C 170.988281 99.832031 175.519531 104.429688 181.539062 105.109375 C 181.539062 105.109375 182.058594 92.746094 173.414062 87.4375 C 178.078125 89.3125 184.550781 93.554688 185.003906 103.199219 Z M 185.003906 103.199219 " fill-opacity="1" fill-rule="nonzero"/></g></svg>